<svg width="20" height="20" viewBox="0 0 20 20" fill="none" xmlns="http://www.w3.org/2000/svg">
<path d="M10.8334 5.41658C10.8334 4.95635 10.4603 4.58325 10 4.58325C9.5398 4.58325 9.16671 4.95635 9.16671 5.41658V9.99992C9.16671 10.2209 9.2545 10.4329 9.41078 10.5892L11.9108 13.0892C12.2362 13.4146 12.7639 13.4146 13.0893 13.0892C13.4147 12.7637 13.4147 12.2361 13.0893 11.9107L10.8334 9.65474V5.41658Z" fill="#17696A"/>
<path fill-rule="evenodd" clip-rule="evenodd" d="M10 0.833252C4.93743 0.833252 0.833374 4.93731 0.833374 9.99992C0.833374 15.0625 4.93743 19.1666 10 19.1666C15.0626 19.1666 19.1667 15.0625 19.1667 9.99992C19.1667 4.93731 15.0626 0.833252 10 0.833252ZM2.50004 9.99992C2.50004 5.85778 5.8579 2.49992 10 2.49992C14.1422 2.49992 17.5 5.85778 17.5 9.99992C17.5 14.1421 14.1422 17.4999 10 17.4999C5.8579 17.4999 2.50004 14.1421 2.50004 9.99992Z" fill="#17696A"/>
</svg>
