<svg width="20" height="20" viewBox="0 0 20 20" fill="none" xmlns="http://www.w3.org/2000/svg">
<path fill-rule="evenodd" clip-rule="evenodd" d="M7.08341 2.43498C6.39306 2.43498 5.83341 2.99462 5.83341 3.68498V16.3152C5.83341 17.0055 6.39306 17.5652 7.08341 17.5652H12.9167C13.6071 17.5652 14.1667 17.0055 14.1667 16.3152V3.68498C14.1667 2.99462 13.6071 2.43498 12.9167 2.43498H12.8473L12.6443 2.92202C12.5149 3.23253 12.2115 3.43479 11.8751 3.43479H8.12508C7.78868 3.43479 7.48528 3.23253 7.35587 2.92202L7.1529 2.43498H7.08341ZM4.16675 3.68498C4.16675 2.07415 5.47258 0.768311 7.08341 0.768311H12.9167C14.5276 0.768311 15.8334 2.07415 15.8334 3.68498V16.3152C15.8334 17.926 14.5276 19.2319 12.9167 19.2319H7.08341C5.47258 19.2319 4.16675 17.926 4.16675 16.3152V3.68498Z" fill="#17696A"/>
</svg>
