<svg width="20" height="20" viewBox="0 0 20 20" fill="none" xmlns="http://www.w3.org/2000/svg">
<path fill-rule="evenodd" clip-rule="evenodd" d="M18.9584 14.9999V5.83325C18.9584 4.45254 17.8391 3.33325 16.4584 3.33325L3.54174 3.33326C2.16103 3.33327 1.04175 4.45255 1.04175 5.83326V14.9999C1.04175 16.3806 2.16104 17.4999 3.54175 17.4999L16.4584 17.4999C17.8391 17.4999 18.9584 16.3806 18.9584 14.9999ZM17.2917 7.71614V14.9999C17.2917 15.4602 16.9187 15.8332 16.4584 15.8332H3.54175C3.08151 15.8332 2.70842 15.4602 2.70842 14.9999L2.70842 7.71603L8.59439 11.7185C9.44279 12.2954 10.5575 12.2954 11.4059 11.7185L17.2917 7.71614ZM17.2823 5.70709C17.2215 5.30672 16.8758 4.99992 16.4584 4.99992L3.54175 4.99993C3.12444 4.99993 2.77877 5.30668 2.71792 5.70699L9.53157 10.3403C9.81437 10.5326 10.186 10.5326 10.4688 10.3403L17.2823 5.70709Z" fill="#17696A"/>
</svg>
