<svg width="20" height="20" viewBox="0 0 20 20" fill="none" xmlns="http://www.w3.org/2000/svg">
<path fill-rule="evenodd" clip-rule="evenodd" d="M10 6.45842C9.07955 6.45842 8.33335 7.20461 8.33335 8.12508C8.33335 9.04556 9.07955 9.79175 10 9.79175C10.9205 9.79175 11.6667 9.04556 11.6667 8.12508C11.6667 7.20461 10.9205 6.45842 10 6.45842ZM6.66669 8.12508C6.66669 6.28413 8.15907 4.79175 10 4.79175C11.841 4.79175 13.3334 6.28413 13.3334 8.12508C13.3334 9.96603 11.841 11.4584 10 11.4584C8.15907 11.4584 6.66669 9.96603 6.66669 8.12508Z" fill="#17696A"/>
<path fill-rule="evenodd" clip-rule="evenodd" d="M10 2.70841C6.98374 2.70841 4.58335 5.0718 4.58335 7.93278C4.58335 10.2651 5.98503 12.6208 7.51722 14.4736C8.26939 15.3832 9.0237 16.1366 9.59041 16.6627C9.742 16.8034 9.87978 16.9275 10 17.0336C10.1203 16.9275 10.258 16.8034 10.4096 16.6627C10.9763 16.1366 11.7306 15.3832 12.4828 14.4736C14.015 12.6208 15.4167 10.2651 15.4167 7.93278C15.4167 5.0718 13.0163 2.70841 10 2.70841ZM10 18.1251C9.48433 18.7797 9.48414 18.7795 9.48393 18.7794L9.48186 18.7777L9.47711 18.774L9.46096 18.7611C9.44729 18.7501 9.42784 18.7344 9.40302 18.7142C9.35338 18.6737 9.28218 18.6149 9.1925 18.5388C9.01321 18.3868 8.75963 18.1656 8.45651 17.8842C7.85134 17.3224 7.04315 16.5156 6.23282 15.5357C4.64001 13.6096 2.91669 10.8691 2.91669 7.93278C2.91669 4.10261 6.11274 1.04175 10 1.04175C13.8873 1.04175 17.0834 4.10261 17.0834 7.93278C17.0834 10.8691 15.36 13.6096 13.7672 15.5357C12.9569 16.5156 12.1487 17.3224 11.5435 17.8842C11.2404 18.1656 10.9868 18.3868 10.8075 18.5388C10.7179 18.6149 10.6467 18.6737 10.597 18.7142C10.5722 18.7344 10.5528 18.7501 10.5391 18.7611L10.5229 18.774L10.5182 18.7777L10.5167 18.7789C10.5164 18.7791 10.5157 18.7797 10 18.1251ZM10 18.1251L10.5157 18.7797C10.2132 19.018 9.78642 19.0177 9.48393 18.7794L10 18.1251Z" fill="#17696A"/>
</svg>
